# xmcd
#
# Track frame offsets:
#	150
#	14525
#	29772
#	48782
#	62677
#	73990
#	85175
#	100352
#	114072
#	150527
#	168815
#	199157
#	213340
#
# Disc length: 3104 seconds
#
# Revision: 1
# Processed by: cddbd v1.5.1PL2 Copyright (c) Steve Scherf et al.
# Submitted via: audiograbber 1.83.01
#
DISCID=aa0c1e0d
DTITLE=Various Artist - Hasselt Bluesnight
DYEAR=1990
DGENRE=blues
TTITLE0=She'll come along - Dizzy Dave Band
TTITLE1=Gonna have a ball - Jumping Jerks
TTITLE2=Straycats and streetdogs - T.D. Blue
TTITLE3=Dejection blues - the Capitols
TTITLE4=Track to run - Noe and the Hoodooman
TTITLE5=Good morning blues - the Railroad Company
TTITLE6=Back where you belong - Mark and the Monday Lovers
TTITLE7=Carol Ann - Medford Slim Band
TTITLE8=Killin' my time - the Prime
TTITLE9=Watcha gonna do - Dark Rose
TTITLE10=Nothing but the blues - Dirty Fingers
TTITLE11=Thin line - Bizar Blues
TTITLE12=Houserock boogie - Blue 4U
EXTD=
EXTT0=
EXTT1=
EXTT2=
EXTT3=
EXTT4=
EXTT5=
EXTT6=
EXTT7=
EXTT8=
EXTT9=
EXTT10=
EXTT11=
EXTT12=
PLAYORDER=
